<?xml version="1.0" encoding="utf-8"?>
<!-- Generator: Adobe Illustrator 19.1.0, SVG Export Plug-In . SVG Version: 6.00 Build 0)  -->
<svg version="1.1" id="Layer_1" xmlns="http://www.w3.org/2000/svg" xmlns:xlink="http://www.w3.org/1999/xlink" x="0px" y="0px"
	 viewBox="-354.6 138.5 340.2 340.2" style="enable-background:new -354.6 138.5 340.2 340.2;" xml:space="preserve">
<style type="text/css">
	.st0{fill:#FDFEFF;}
</style>
<path class="st0" d="M-33.2,138.5h-302.7c-10.3,0-18.7,8.4-18.7,18.7v302.6c0,10.3,8.4,18.7,18.7,18.7h163V346.9h-44.4v-51.4h44.4
	v-37.9c0-43.8,26.8-67.8,66-67.8c18.7,0,34.9,1.4,39.6,2v45.9h-27.1c-21.4,0-25.5,10.1-25.5,25v32.8H-69l-6.6,51.4h-44.2v131.7h86.7
	v0.1c10.3,0,18.7-8.4,18.7-18.7V157.3C-14.4,146.9-22.8,138.5-33.2,138.5z"/>
</svg>
